<svg width="198" height="46" viewBox="0 0 198 46" fill="none" xmlns="http://www.w3.org/2000/svg">
<path d="M6.70673 43.08H30.2587L16.6907 5.76799L2.41873 45H0.370728L16.6907 0.135986L33.0107 45H6.70673V43.08Z" fill="white"/>
<path d="M55.8522 26.376L64.5562 45H62.4442L53.4842 25.8C53.5696 25.7573 53.9322 25.5867 54.5722 25.288C55.2549 24.9467 55.7242 24.712 55.9802 24.584C56.2362 24.4133 56.6629 24.136 57.2602 23.752C57.8576 23.368 58.3056 23.0053 58.6042 22.664C58.9029 22.28 59.2229 21.8533 59.5642 21.384C59.9482 20.872 60.2256 20.3173 60.3962 19.72C60.5669 19.08 60.6522 18.3973 60.6522 17.672C60.6522 14.984 59.3722 13 56.8122 11.72C54.2522 10.44 51.0736 9.79999 47.2762 9.79999H42.1562V45H40.2362V7.87999H47.2762C52.3109 7.87999 56.1082 8.75465 58.6682 10.504C61.2709 12.2533 62.5722 14.6427 62.5722 17.672C62.5722 19.6347 61.9109 21.384 60.5882 22.92C59.2656 24.4133 57.6869 25.5653 55.8522 26.376Z" fill="white"/>
<path d="M97.2362 7.87999V9.79999H83.7962V45H81.8762V9.79999H68.4362V7.87999H97.2362Z" fill="white"/>
<path d="M121.635 9.79999H101.667V7.87999H124.963L104.611 43.08H125.219V45H101.283L121.635 9.79999Z" fill="white"/>
<path d="M152.862 9.86399C151.411 9.39465 149.619 9.15999 147.486 9.15999C145.352 9.15999 143.56 9.39465 142.11 9.86399C140.659 10.2907 139.315 11.1227 138.078 12.36C136.883 13.5547 135.987 15.3253 135.39 17.672C134.792 19.976 134.494 22.8987 134.494 26.44C134.494 29.9813 134.792 32.9253 135.39 35.272C135.987 37.576 136.883 39.3467 138.078 40.584C139.315 41.7787 140.659 42.6107 142.11 43.08C143.56 43.5067 145.352 43.72 147.486 43.72C149.619 43.72 151.411 43.5067 152.862 43.08C154.312 42.6107 155.635 41.7787 156.83 40.584C158.067 39.3467 158.984 37.576 159.582 35.272C160.179 32.9253 160.478 29.9813 160.478 26.44C160.478 22.8987 160.179 19.976 159.582 17.672C158.984 15.3253 158.067 13.5547 156.83 12.36C155.635 11.1227 154.312 10.2907 152.862 9.86399ZM158.942 41.096C156.638 44.1253 152.819 45.64 147.486 45.64C142.152 45.64 138.334 44.1253 136.03 41.096C133.726 38.0667 132.574 33.1813 132.574 26.44C132.574 19.6987 133.726 14.8133 136.03 11.784C138.334 8.75465 142.152 7.23999 147.486 7.23999C152.819 7.23999 156.638 8.75465 158.942 11.784C161.246 14.8133 162.398 19.6987 162.398 26.44C162.398 33.1813 161.246 38.0667 158.942 41.096Z" fill="white"/>
<path d="M172.986 45V7.87999H174.906L195.77 41.48V7.87999H197.69V45H195.77L174.906 11.336V45H172.986Z" fill="white"/>
</svg>
