<svg width="29" height="57" viewBox="0 0 29 57" fill="none" xmlns="http://www.w3.org/2000/svg">
<path d="M23.8208 56.3141C23.2286 56.3162 22.6435 56.1855 22.1085 55.9317C21.5734 55.6779 21.1021 55.3074 20.729 54.8475L1.58338 31.0641C1.00036 30.3549 0.681641 29.4652 0.681641 28.5471C0.681641 27.6289 1.00036 26.7393 1.58338 26.03L21.4029 2.24662C22.0757 1.43712 23.0425 0.928063 24.0907 0.831425C25.1388 0.734786 26.1825 1.05849 26.9919 1.73131C27.8014 2.40414 28.3105 3.37098 28.4071 4.41913C28.5038 5.46729 28.1801 6.51091 27.5073 7.3204L9.78864 28.5669L26.9127 49.8134C27.3974 50.3952 27.7053 51.1037 27.7999 51.8551C27.8946 52.6064 27.7721 53.3692 27.4468 54.053C27.1215 54.7369 26.6072 55.3133 25.9646 55.714C25.322 56.1147 24.5781 56.323 23.8208 56.3141Z" fill="white"/>
</svg>
