<svg width="22" height="19" viewBox="0 0 22 19" fill="none" xmlns="http://www.w3.org/2000/svg">
<path d="M1.375 10.8244L17.6825 10.8244L12.6912 16.7238C12.4579 17.0001 12.3456 17.3563 12.3791 17.7141C12.4126 18.0719 12.5892 18.4019 12.87 18.6316C13.1508 18.8612 13.5128 18.9717 13.8764 18.9387C14.24 18.9057 14.5754 18.732 14.8088 18.4557L21.6837 10.3373C21.73 10.2728 21.7714 10.2049 21.8075 10.1344C21.8075 10.0667 21.8075 10.0261 21.9037 9.95849C21.9661 9.80335 21.9987 9.63821 22 9.47139C21.9987 9.30457 21.9661 9.13943 21.9037 8.98429C21.9037 8.91664 21.9038 8.87605 21.8075 8.80839C21.7714 8.73785 21.73 8.67001 21.6837 8.60544L14.8088 0.487116C14.6795 0.334379 14.5176 0.211548 14.3346 0.127359C14.1516 0.0431709 13.952 -0.00030899 13.75 1.52588e-05C13.4287 -0.000602722 13.1174 0.109501 12.87 0.311216C12.7308 0.424805 12.6157 0.564308 12.5313 0.721731C12.447 0.879156 12.395 1.05141 12.3784 1.22863C12.3618 1.40584 12.3809 1.58455 12.4346 1.75449C12.4882 1.92444 12.5755 2.0823 12.6912 2.21902L17.6825 8.11834L1.375 8.11834C1.01033 8.11834 0.660589 8.26089 0.402727 8.51464C0.144863 8.76838 0 9.11254 0 9.47139C0 9.83024 0.144863 10.1744 0.402727 10.4281C0.660589 10.6819 1.01033 10.8244 1.375 10.8244Z" fill="white"/>
</svg>
