<svg width="9" height="9" viewBox="0 0 9 9" fill="none" xmlns="http://www.w3.org/2000/svg">
<path d="M8.2915 3.79167H5.0415V0.541667C5.0415 0.398008 4.98444 0.260233 4.88285 0.158651C4.78127 0.0570684 4.6435 0 4.49984 0C4.35618 0 4.2184 0.0570684 4.11682 0.158651C4.01524 0.260233 3.95817 0.398008 3.95817 0.541667V3.79167H0.708171C0.564512 3.79167 0.426737 3.84873 0.325154 3.95032C0.223572 4.0519 0.166504 4.18967 0.166504 4.33333C0.166504 4.47699 0.223572 4.61477 0.325154 4.71635C0.426737 4.81793 0.564512 4.875 0.708171 4.875H3.95817V8.125C3.95817 8.26866 4.01524 8.40643 4.11682 8.50802C4.2184 8.6096 4.35618 8.66667 4.49984 8.66667C4.6435 8.66667 4.78127 8.6096 4.88285 8.50802C4.98444 8.40643 5.0415 8.26866 5.0415 8.125V4.875H8.2915C8.43516 4.875 8.57294 4.81793 8.67452 4.71635C8.7761 4.61477 8.83317 4.47699 8.83317 4.33333C8.83317 4.18967 8.7761 4.0519 8.67452 3.95032C8.57294 3.84873 8.43516 3.79167 8.2915 3.79167Z" fill="#231F20"/>
</svg>
