<svg width="21" height="21" viewBox="0 0 21 21" fill="none" xmlns="http://www.w3.org/2000/svg">
<path d="M18.2964 9.73C18.2964 14.0087 15.1901 18.0162 10.9464 19.1887C10.6576 19.2675 10.3426 19.2675 10.0539 19.1887C5.81011 18.0162 2.70386 14.0087 2.70386 9.73V5.88875C2.70386 5.17125 3.24636 4.3575 3.92011 4.08625L8.79386 2.09125C9.88761 1.645 11.1214 1.645 12.2151 2.09125L17.0889 4.08625C17.7539 4.3575 18.3051 5.17125 18.3051 5.88875L18.2964 9.73V9.73Z" stroke="white" stroke-width="1.5" stroke-linecap="round" stroke-linejoin="round"/>
<path d="M10.5 10.9375V13.5625M10.5 10.9375C10.9641 10.9375 11.4092 10.7531 11.7374 10.4249C12.0656 10.0967 12.25 9.65163 12.25 9.1875C12.25 8.72337 12.0656 8.27825 11.7374 7.95006C11.4092 7.62187 10.9641 7.4375 10.5 7.4375C10.0359 7.4375 9.59075 7.62187 9.26256 7.95006C8.93437 8.27825 8.75 8.72337 8.75 9.1875C8.75 9.65163 8.93437 10.0967 9.26256 10.4249C9.59075 10.7531 10.0359 10.9375 10.5 10.9375Z" stroke="white" stroke-width="1.5" stroke-miterlimit="10" stroke-linecap="round" stroke-linejoin="round"/>
</svg>
