<svg width="21" height="21" viewBox="0 0 21 21" fill="none" xmlns="http://www.w3.org/2000/svg">
<path d="M0.344988 18.9989L4.31038 15.0452C3.03097 13.4152 2.33677 11.4024 2.33934 9.33033C2.33934 7.48497 2.88656 5.68104 3.91179 4.14668C4.93702 2.61231 6.39421 1.41642 8.09911 0.710233C9.804 0.00404269 11.68 -0.180729 13.4899 0.179284C15.2998 0.539297 16.9623 1.42792 18.2672 2.73279C19.5721 4.03766 20.4607 5.70017 20.8207 7.51007C21.1807 9.31998 20.996 11.196 20.2898 12.9009C19.5836 14.6058 18.3877 16.063 16.8533 17.0882C15.319 18.1134 13.515 18.6607 11.6697 18.6607C9.59757 18.6632 7.58479 17.969 5.95485 16.6896L2.00112 20.655C1.8927 20.7643 1.7637 20.8511 1.62158 20.9103C1.47946 20.9695 1.32702 21 1.17305 21C1.01909 21 0.866648 20.9695 0.724524 20.9103C0.582399 20.8511 0.453409 20.7643 0.344988 20.655C0.235674 20.5466 0.148907 20.4176 0.089695 20.2755C0.0304832 20.1334 0 19.9809 0 19.8269C0 19.673 0.0304832 19.5205 0.089695 19.3784C0.148907 19.2363 0.235674 19.1073 0.344988 18.9989ZM18.6674 9.33033C18.6674 7.94631 18.257 6.59337 17.4881 5.44259C16.7192 4.29182 15.6263 3.3949 14.3476 2.86526C13.0689 2.33561 11.6619 2.19704 10.3045 2.46705C8.94705 2.73705 7.70017 3.40353 6.72152 4.38218C5.74286 5.36083 5.07639 6.60771 4.80638 7.96514C4.53637 9.32257 4.67495 10.7296 5.2046 12.0083C5.73424 13.2869 6.63116 14.3798 7.78193 15.1487C8.9327 15.9177 10.2856 16.3281 11.6697 16.3281C13.5256 16.3281 15.3055 15.5908 16.6178 14.2785C17.9302 12.9662 18.6674 11.1862 18.6674 9.33033Z" fill="white"/>
</svg>
