<svg width="41" height="41" viewBox="0 0 41 41" fill="none" xmlns="http://www.w3.org/2000/svg">
<circle cx="20.5" cy="20.5" r="20.5" fill="#D9D9D9"/>
<path d="M20.5001 19.2798C21.4655 19.2798 22.4091 18.9935 23.2118 18.4572C24.0145 17.9208 24.6401 17.1585 25.0095 16.2667C25.3789 15.3748 25.4756 14.3934 25.2873 13.4466C25.0989 12.4998 24.6341 11.6301 23.9514 10.9475C23.2688 10.2648 22.3991 9.79997 21.4523 9.61164C20.5055 9.42331 19.5241 9.51997 18.6322 9.8894C17.7404 10.2588 16.9781 10.8844 16.4417 11.6871C15.9054 12.4898 15.6191 13.4334 15.6191 14.3988C15.6191 15.6933 16.1334 16.9348 17.0487 17.8502C17.9641 18.7655 19.2056 19.2798 20.5001 19.2798Z" fill="#231F20"/>
<path d="M27.8216 31.4822C28.1452 31.4822 28.4556 31.3536 28.6844 31.1248C28.9133 30.8959 29.0418 30.5856 29.0418 30.2619C29.0418 27.9966 28.1419 25.8239 26.54 24.2221C24.9382 22.6202 22.7656 21.7203 20.5002 21.7203C18.2348 21.7203 16.0622 22.6202 14.4603 24.2221C12.8584 25.8239 11.9585 27.9966 11.9585 30.2619C11.9585 30.5856 12.0871 30.8959 12.3159 31.1248C12.5447 31.3536 12.8551 31.4822 13.1787 31.4822H27.8216Z" fill="#231F20"/>
</svg>
